<svg width="1160" height="323" viewBox="0 0 1160 323" fill="none" xmlns="http://www.w3.org/2000/svg">
<g filter="url(#filter0_d_4352_11)">
<path d="M360.825 61.9375V158H342.825V61.9375H360.825ZM403.45 90.375L374.075 123.875L358.325 139.812L351.763 126.812L364.263 110.938L381.825 90.375H403.45ZM384.763 158L364.763 126.75L377.2 115.875L405.513 158H384.763ZM443.86 142.75V112.625C443.86 110.458 443.506 108.604 442.798 107.062C442.089 105.479 440.985 104.25 439.485 103.375C438.027 102.5 436.131 102.062 433.798 102.062C431.798 102.062 430.068 102.417 428.61 103.125C427.152 103.792 426.027 104.771 425.235 106.062C424.443 107.312 424.048 108.792 424.048 110.5H406.048C406.048 107.625 406.714 104.896 408.048 102.312C409.381 99.7292 411.318 97.4583 413.86 95.5C416.402 93.5 419.423 91.9375 422.923 90.8125C426.464 89.6875 430.423 89.125 434.798 89.125C440.048 89.125 444.714 90 448.798 91.75C452.881 93.5 456.089 96.125 458.423 99.625C460.798 103.125 461.985 107.5 461.985 112.75V141.688C461.985 145.396 462.214 148.438 462.673 150.812C463.131 153.146 463.798 155.188 464.673 156.938V158H446.485C445.61 156.167 444.943 153.875 444.485 151.125C444.068 148.333 443.86 145.542 443.86 142.75ZM446.235 116.812L446.36 127H436.298C433.923 127 431.86 127.271 430.11 127.812C428.36 128.354 426.923 129.125 425.798 130.125C424.673 131.083 423.839 132.208 423.298 133.5C422.798 134.792 422.548 136.208 422.548 137.75C422.548 139.292 422.902 140.688 423.61 141.938C424.318 143.146 425.339 144.104 426.673 144.812C428.006 145.479 429.568 145.812 431.36 145.812C434.068 145.812 436.423 145.271 438.423 144.188C440.423 143.104 441.964 141.771 443.048 140.188C444.173 138.604 444.756 137.104 444.798 135.688L449.548 143.312C448.881 145.021 447.964 146.792 446.798 148.625C445.673 150.458 444.235 152.188 442.485 153.812C440.735 155.396 438.631 156.708 436.173 157.75C433.714 158.75 430.798 159.25 427.423 159.25C423.131 159.25 419.235 158.396 415.735 156.688C412.277 154.938 409.527 152.542 407.485 149.5C405.485 146.417 404.485 142.917 404.485 139C404.485 135.458 405.152 132.312 406.485 129.562C407.818 126.812 409.777 124.5 412.36 122.625C414.985 120.708 418.256 119.271 422.173 118.312C426.089 117.312 430.631 116.812 435.798 116.812H446.235ZM508.52 142.75V112.625C508.52 110.458 508.166 108.604 507.458 107.062C506.749 105.479 505.645 104.25 504.145 103.375C502.687 102.5 500.791 102.062 498.458 102.062C496.458 102.062 494.728 102.417 493.27 103.125C491.812 103.792 490.687 104.771 489.895 106.062C489.103 107.312 488.708 108.792 488.708 110.5H470.708C470.708 107.625 471.374 104.896 472.708 102.312C474.041 99.7292 475.978 97.4583 478.52 95.5C481.062 93.5 484.083 91.9375 487.583 90.8125C491.124 89.6875 495.083 89.125 499.458 89.125C504.708 89.125 509.374 90 513.458 91.75C517.541 93.5 520.749 96.125 523.083 99.625C525.458 103.125 526.645 107.5 526.645 112.75V141.688C526.645 145.396 526.874 148.438 527.333 150.812C527.791 153.146 528.458 155.188 529.333 156.938V158H511.145C510.27 156.167 509.603 153.875 509.145 151.125C508.728 148.333 508.52 145.542 508.52 142.75ZM510.895 116.812L511.02 127H500.958C498.583 127 496.52 127.271 494.77 127.812C493.02 128.354 491.583 129.125 490.458 130.125C489.333 131.083 488.499 132.208 487.958 133.5C487.458 134.792 487.208 136.208 487.208 137.75C487.208 139.292 487.562 140.688 488.27 141.938C488.978 143.146 489.999 144.104 491.333 144.812C492.666 145.479 494.228 145.812 496.02 145.812C498.728 145.812 501.083 145.271 503.083 144.188C505.083 143.104 506.624 141.771 507.708 140.188C508.833 138.604 509.416 137.104 509.458 135.688L514.208 143.312C513.541 145.021 512.624 146.792 511.458 148.625C510.333 150.458 508.895 152.188 507.145 153.812C505.395 155.396 503.291 156.708 500.833 157.75C498.374 158.75 495.458 159.25 492.083 159.25C487.791 159.25 483.895 158.396 480.395 156.688C476.937 154.938 474.187 152.542 472.145 149.5C470.145 146.417 469.145 142.917 469.145 139C469.145 135.458 469.812 132.312 471.145 129.562C472.478 126.812 474.437 124.5 477.02 122.625C479.645 120.708 482.916 119.271 486.833 118.312C490.749 117.312 495.291 116.812 500.458 116.812H510.895ZM555.68 62V158H537.618V62H555.68ZM594.75 62H612.75V142.5L610.938 158H594.75V62ZM655.563 123.5V124.812C655.563 129.854 655.021 134.479 653.938 138.688C652.896 142.896 651.271 146.542 649.063 149.625C646.854 152.667 644.104 155.042 640.813 156.75C637.563 158.417 633.729 159.25 629.313 159.25C625.188 159.25 621.604 158.417 618.563 156.75C615.563 155.083 613.042 152.729 611 149.688C608.958 146.646 607.313 143.083 606.063 139C604.813 134.917 603.875 130.458 603.25 125.625V122.75C603.875 117.917 604.813 113.458 606.063 109.375C607.313 105.292 608.958 101.729 611 98.6875C613.042 95.6458 615.563 93.2917 618.563 91.625C621.563 89.9583 625.104 89.125 629.188 89.125C633.646 89.125 637.521 89.9792 640.813 91.6875C644.146 93.3542 646.896 95.7292 649.063 98.8125C651.271 101.854 652.896 105.479 653.938 109.688C655.021 113.854 655.563 118.458 655.563 123.5ZM637.563 124.812V123.5C637.563 120.75 637.354 118.167 636.938 115.75C636.563 113.292 635.896 111.146 634.938 109.312C633.979 107.438 632.667 105.958 631 104.875C629.375 103.792 627.271 103.25 624.688 103.25C622.229 103.25 620.146 103.667 618.438 104.5C616.729 105.333 615.313 106.5 614.188 108C613.104 109.5 612.292 111.292 611.75 113.375C611.208 115.417 610.875 117.667 610.75 120.125V128.312C610.875 131.604 611.417 134.521 612.375 137.062C613.375 139.562 614.875 141.542 616.875 143C618.917 144.417 621.563 145.125 624.813 145.125C627.354 145.125 629.458 144.625 631.125 143.625C632.792 142.625 634.083 141.208 635 139.375C635.958 137.542 636.625 135.396 637 132.938C637.375 130.438 637.563 127.729 637.563 124.812ZM682.223 150.375L700.16 90.375H719.473L692.285 168.188C691.702 169.896 690.91 171.729 689.91 173.688C688.952 175.646 687.639 177.5 685.973 179.25C684.348 181.042 682.285 182.5 679.785 183.625C677.327 184.75 674.306 185.312 670.723 185.312C669.014 185.312 667.618 185.208 666.535 185C665.452 184.792 664.16 184.5 662.66 184.125V170.938C663.118 170.938 663.598 170.938 664.098 170.938C664.598 170.979 665.077 171 665.535 171C667.91 171 669.848 170.729 671.348 170.188C672.848 169.646 674.056 168.812 674.973 167.688C675.889 166.604 676.618 165.188 677.16 163.438L682.223 150.375ZM674.723 90.375L689.41 139.375L691.973 158.438L679.723 159.75L655.41 90.375H674.723ZM173.14 242.812H191.828C191.453 248.938 189.765 254.375 186.765 259.125C183.807 263.875 179.661 267.583 174.328 270.25C169.036 272.917 162.661 274.25 155.203 274.25C149.369 274.25 144.14 273.25 139.515 271.25C134.89 269.208 130.932 266.292 127.64 262.5C124.39 258.708 121.911 254.125 120.203 248.75C118.494 243.375 117.64 237.354 117.64 230.688V224.375C117.64 217.708 118.515 211.688 120.265 206.312C122.057 200.896 124.598 196.292 127.89 192.5C131.223 188.708 135.203 185.792 139.828 183.75C144.453 181.708 149.619 180.688 155.328 180.688C162.911 180.688 169.307 182.062 174.515 184.812C179.765 187.562 183.828 191.354 186.703 196.188C189.619 201.021 191.369 206.521 191.953 212.688H173.203C172.994 209.021 172.265 205.917 171.015 203.375C169.765 200.792 167.869 198.854 165.328 197.562C162.828 196.229 159.494 195.562 155.328 195.562C152.203 195.562 149.473 196.146 147.14 197.312C144.807 198.479 142.848 200.25 141.265 202.625C139.682 205 138.494 208 137.703 211.625C136.953 215.208 136.578 219.417 136.578 224.25V230.688C136.578 235.396 136.932 239.542 137.64 243.125C138.348 246.667 139.432 249.667 140.89 252.125C142.39 254.542 144.307 256.375 146.64 257.625C149.015 258.833 151.869 259.438 155.203 259.438C159.119 259.438 162.348 258.812 164.89 257.562C167.432 256.312 169.369 254.458 170.703 252C172.078 249.542 172.89 246.479 173.14 242.812ZM196.3 239.875V238.562C196.3 233.604 197.008 229.042 198.425 224.875C199.842 220.667 201.904 217.021 204.613 213.938C207.321 210.854 210.654 208.458 214.613 206.75C218.571 205 223.113 204.125 228.238 204.125C233.363 204.125 237.925 205 241.925 206.75C245.925 208.458 249.279 210.854 251.988 213.938C254.738 217.021 256.821 220.667 258.238 224.875C259.654 229.042 260.363 233.604 260.363 238.562V239.875C260.363 244.792 259.654 249.354 258.238 253.562C256.821 257.729 254.738 261.375 251.988 264.5C249.279 267.583 245.946 269.979 241.988 271.688C238.029 273.396 233.488 274.25 228.363 274.25C223.238 274.25 218.675 273.396 214.675 271.688C210.717 269.979 207.363 267.583 204.613 264.5C201.904 261.375 199.842 257.729 198.425 253.562C197.008 249.354 196.3 244.792 196.3 239.875ZM214.3 238.562V239.875C214.3 242.708 214.55 245.354 215.05 247.812C215.55 250.271 216.342 252.438 217.425 254.312C218.55 256.146 220.008 257.583 221.8 258.625C223.592 259.667 225.779 260.188 228.363 260.188C230.863 260.188 233.008 259.667 234.8 258.625C236.592 257.583 238.029 256.146 239.113 254.312C240.196 252.438 240.988 250.271 241.488 247.812C242.029 245.354 242.3 242.708 242.3 239.875V238.562C242.3 235.812 242.029 233.229 241.488 230.812C240.988 228.354 240.175 226.188 239.05 224.312C237.967 222.396 236.529 220.896 234.738 219.812C232.946 218.729 230.779 218.188 228.238 218.188C225.696 218.188 223.529 218.729 221.738 219.812C219.988 220.896 218.55 222.396 217.425 224.312C216.342 226.188 215.55 228.354 215.05 230.812C214.55 233.229 214.3 235.812 214.3 238.562ZM307.523 258.25V177H325.648V273H309.335L307.523 258.25ZM264.773 240V238.688C264.773 233.521 265.356 228.833 266.523 224.625C267.689 220.375 269.398 216.729 271.648 213.688C273.898 210.646 276.668 208.292 279.96 206.625C283.252 204.958 287.002 204.125 291.21 204.125C295.168 204.125 298.627 204.958 301.585 206.625C304.585 208.292 307.127 210.667 309.21 213.75C311.335 216.792 313.043 220.396 314.335 224.562C315.627 228.688 316.564 233.208 317.148 238.125V241C316.564 245.708 315.627 250.083 314.335 254.125C313.043 258.167 311.335 261.708 309.21 264.75C307.127 267.75 304.585 270.083 301.585 271.75C298.585 273.417 295.085 274.25 291.085 274.25C286.877 274.25 283.127 273.396 279.835 271.688C276.585 269.979 273.835 267.583 271.585 264.5C269.377 261.417 267.689 257.792 266.523 253.625C265.356 249.458 264.773 244.917 264.773 240ZM282.773 238.688V240C282.773 242.792 282.981 245.396 283.398 247.812C283.856 250.229 284.585 252.375 285.585 254.25C286.627 256.083 287.96 257.521 289.585 258.562C291.252 259.562 293.273 260.062 295.648 260.062C298.731 260.062 301.273 259.375 303.273 258C305.273 256.583 306.793 254.646 307.835 252.188C308.918 249.729 309.543 246.896 309.71 243.688V235.5C309.585 232.875 309.21 230.521 308.585 228.438C308.002 226.312 307.127 224.5 305.96 223C304.835 221.5 303.418 220.333 301.71 219.5C300.043 218.667 298.064 218.25 295.773 218.25C293.439 218.25 291.439 218.792 289.773 219.875C288.106 220.917 286.752 222.354 285.71 224.188C284.71 226.021 283.96 228.188 283.46 230.688C283.002 233.146 282.773 235.812 282.773 238.688ZM366.995 274.25C361.745 274.25 357.037 273.417 352.87 271.75C348.703 270.042 345.162 267.688 342.245 264.688C339.37 261.688 337.162 258.208 335.62 254.25C334.078 250.25 333.308 246 333.308 241.5V239C333.308 233.875 334.037 229.188 335.495 224.938C336.953 220.688 339.037 217 341.745 213.875C344.495 210.75 347.828 208.354 351.745 206.688C355.662 204.979 360.078 204.125 364.995 204.125C369.787 204.125 374.037 204.917 377.745 206.5C381.453 208.083 384.558 210.333 387.058 213.25C389.599 216.167 391.516 219.667 392.808 223.75C394.099 227.792 394.745 232.292 394.745 237.25V244.75H340.995V232.75H377.058V231.375C377.058 228.875 376.599 226.646 375.683 224.688C374.808 222.688 373.474 221.104 371.683 219.938C369.891 218.771 367.599 218.188 364.808 218.188C362.433 218.188 360.391 218.708 358.683 219.75C356.974 220.792 355.578 222.25 354.495 224.125C353.453 226 352.662 228.208 352.12 230.75C351.62 233.25 351.37 236 351.37 239V241.5C351.37 244.208 351.745 246.708 352.495 249C353.287 251.292 354.391 253.271 355.808 254.938C357.266 256.604 359.016 257.896 361.058 258.812C363.141 259.729 365.495 260.188 368.12 260.188C371.37 260.188 374.391 259.562 377.183 258.312C380.016 257.021 382.453 255.083 384.495 252.5L393.245 262C391.828 264.042 389.891 266 387.433 267.875C385.016 269.75 382.099 271.292 378.683 272.5C375.266 273.667 371.37 274.25 366.995 274.25ZM423.28 259.875L438.28 205.375H457.093L434.28 273H422.905L423.28 259.875ZM412.968 205.375L428.03 259.938L428.343 273H416.905L394.093 205.375H412.968ZM491.565 274.25C486.315 274.25 481.607 273.417 477.44 271.75C473.273 270.042 469.732 267.688 466.815 264.688C463.94 261.688 461.732 258.208 460.19 254.25C458.648 250.25 457.878 246 457.878 241.5V239C457.878 233.875 458.607 229.188 460.065 224.938C461.523 220.688 463.607 217 466.315 213.875C469.065 210.75 472.398 208.354 476.315 206.688C480.232 204.979 484.648 204.125 489.565 204.125C494.357 204.125 498.607 204.917 502.315 206.5C506.023 208.083 509.128 210.333 511.628 213.25C514.169 216.167 516.086 219.667 517.378 223.75C518.669 227.792 519.315 232.292 519.315 237.25V244.75H465.565V232.75H501.628V231.375C501.628 228.875 501.169 226.646 500.253 224.688C499.378 222.688 498.044 221.104 496.253 219.938C494.461 218.771 492.169 218.188 489.378 218.188C487.003 218.188 484.961 218.708 483.253 219.75C481.544 220.792 480.148 222.25 479.065 224.125C478.023 226 477.232 228.208 476.69 230.75C476.19 233.25 475.94 236 475.94 239V241.5C475.94 244.208 476.315 246.708 477.065 249C477.857 251.292 478.961 253.271 480.378 254.938C481.836 256.604 483.586 257.896 485.628 258.812C487.711 259.729 490.065 260.188 492.69 260.188C495.94 260.188 498.961 259.562 501.753 258.312C504.586 257.021 507.023 255.083 509.065 252.5L517.815 262C516.398 264.042 514.461 266 512.003 267.875C509.586 269.75 506.669 271.292 503.253 272.5C499.836 273.667 495.94 274.25 491.565 274.25ZM565.663 258.25V177H583.788V273H567.475L565.663 258.25ZM522.913 240V238.688C522.913 233.521 523.496 228.833 524.663 224.625C525.829 220.375 527.538 216.729 529.788 213.688C532.038 210.646 534.808 208.292 538.1 206.625C541.392 204.958 545.142 204.125 549.35 204.125C553.308 204.125 556.767 204.958 559.725 206.625C562.725 208.292 565.267 210.667 567.35 213.75C569.475 216.792 571.183 220.396 572.475 224.562C573.767 228.688 574.704 233.208 575.288 238.125V241C574.704 245.708 573.767 250.083 572.475 254.125C571.183 258.167 569.475 261.708 567.35 264.75C565.267 267.75 562.725 270.083 559.725 271.75C556.725 273.417 553.225 274.25 549.225 274.25C545.017 274.25 541.267 273.396 537.975 271.688C534.725 269.979 531.975 267.583 529.725 264.5C527.517 261.417 525.829 257.792 524.663 253.625C523.496 249.458 522.913 244.917 522.913 240ZM540.913 238.688V240C540.913 242.792 541.121 245.396 541.538 247.812C541.996 250.229 542.725 252.375 543.725 254.25C544.767 256.083 546.1 257.521 547.725 258.562C549.392 259.562 551.413 260.062 553.788 260.062C556.871 260.062 559.413 259.375 561.413 258C563.413 256.583 564.933 254.646 565.975 252.188C567.058 249.729 567.683 246.896 567.85 243.688V235.5C567.725 232.875 567.35 230.521 566.725 228.438C566.142 226.312 565.267 224.5 564.1 223C562.975 221.5 561.558 220.333 559.85 219.5C558.183 218.667 556.204 218.25 553.913 218.25C551.579 218.25 549.579 218.792 547.913 219.875C546.246 220.917 544.892 222.354 543.85 224.188C542.85 226.021 542.1 228.188 541.6 230.688C541.142 233.146 540.913 235.812 540.913 238.688ZM630.51 257.75V227.625C630.51 225.458 630.156 223.604 629.448 222.062C628.739 220.479 627.635 219.25 626.135 218.375C624.677 217.5 622.781 217.062 620.448 217.062C618.448 217.062 616.718 217.417 615.26 218.125C613.802 218.792 612.677 219.771 611.885 221.062C611.093 222.312 610.698 223.792 610.698 225.5H592.698C592.698 222.625 593.364 219.896 594.698 217.312C596.031 214.729 597.968 212.458 600.51 210.5C603.052 208.5 606.073 206.938 609.573 205.812C613.114 204.688 617.073 204.125 621.448 204.125C626.698 204.125 631.364 205 635.448 206.75C639.531 208.5 642.739 211.125 645.073 214.625C647.448 218.125 648.635 222.5 648.635 227.75V256.688C648.635 260.396 648.864 263.438 649.323 265.812C649.781 268.146 650.448 270.188 651.323 271.938V273H633.135C632.26 271.167 631.593 268.875 631.135 266.125C630.718 263.333 630.51 260.542 630.51 257.75ZM632.885 231.812L633.01 242H622.948C620.573 242 618.51 242.271 616.76 242.812C615.01 243.354 613.573 244.125 612.448 245.125C611.323 246.083 610.489 247.208 609.948 248.5C609.448 249.792 609.198 251.208 609.198 252.75C609.198 254.292 609.552 255.688 610.26 256.938C610.968 258.146 611.989 259.104 613.323 259.812C614.656 260.479 616.218 260.812 618.01 260.812C620.718 260.812 623.073 260.271 625.073 259.188C627.073 258.104 628.614 256.771 629.698 255.188C630.823 253.604 631.406 252.104 631.448 250.688L636.198 258.312C635.531 260.021 634.614 261.792 633.448 263.625C632.323 265.458 630.885 267.188 629.135 268.812C627.385 270.396 625.281 271.708 622.823 272.75C620.364 273.75 617.448 274.25 614.073 274.25C609.781 274.25 605.885 273.396 602.385 271.688C598.927 269.938 596.177 267.542 594.135 264.5C592.135 261.417 591.135 257.917 591.135 254C591.135 250.458 591.802 247.312 593.135 244.562C594.468 241.812 596.427 239.5 599.01 237.625C601.635 235.708 604.906 234.271 608.823 233.312C612.739 232.312 617.281 231.812 622.448 231.812H632.885ZM695.233 254.312C695.233 253.021 694.858 251.854 694.108 250.812C693.358 249.771 691.962 248.812 689.92 247.938C687.92 247.021 685.024 246.188 681.233 245.438C677.816 244.688 674.628 243.75 671.67 242.625C668.753 241.458 666.212 240.062 664.045 238.438C661.92 236.812 660.253 234.896 659.045 232.688C657.837 230.438 657.233 227.875 657.233 225C657.233 222.167 657.837 219.5 659.045 217C660.295 214.5 662.066 212.292 664.358 210.375C666.691 208.417 669.524 206.896 672.858 205.812C676.233 204.688 680.024 204.125 684.233 204.125C690.108 204.125 695.149 205.062 699.358 206.938C703.608 208.812 706.858 211.396 709.108 214.688C711.399 217.938 712.545 221.646 712.545 225.812H694.545C694.545 224.062 694.17 222.5 693.42 221.125C692.712 219.708 691.587 218.604 690.045 217.812C688.545 216.979 686.587 216.562 684.17 216.562C682.17 216.562 680.441 216.917 678.983 217.625C677.524 218.292 676.399 219.208 675.608 220.375C674.858 221.5 674.483 222.75 674.483 224.125C674.483 225.167 674.691 226.104 675.108 226.938C675.566 227.729 676.295 228.458 677.295 229.125C678.295 229.792 679.587 230.417 681.17 231C682.795 231.542 684.795 232.042 687.17 232.5C692.045 233.5 696.399 234.812 700.233 236.438C704.066 238.021 707.108 240.188 709.358 242.938C711.608 245.646 712.733 249.208 712.733 253.625C712.733 256.625 712.066 259.375 710.733 261.875C709.399 264.375 707.483 266.562 704.983 268.438C702.483 270.271 699.483 271.708 695.983 272.75C692.524 273.75 688.628 274.25 684.295 274.25C678.003 274.25 672.67 273.125 668.295 270.875C663.962 268.625 660.67 265.771 658.42 262.312C656.212 258.812 655.108 255.229 655.108 251.562H672.17C672.253 254.021 672.878 256 674.045 257.5C675.253 259 676.774 260.083 678.608 260.75C680.483 261.417 682.503 261.75 684.67 261.75C687.003 261.75 688.941 261.438 690.483 260.812C692.024 260.146 693.191 259.271 693.983 258.188C694.816 257.062 695.233 255.771 695.233 254.312ZM769.678 182V273H750.99V182H769.678ZM799.9 219.812V273H781.9V205.375H798.775L799.9 219.812ZM797.275 236.812H792.4C792.4 231.812 793.046 227.312 794.338 223.312C795.629 219.271 797.442 215.833 799.775 213C802.108 210.125 804.879 207.938 808.088 206.438C811.338 204.896 814.963 204.125 818.963 204.125C822.129 204.125 825.025 204.583 827.65 205.5C830.275 206.417 832.525 207.875 834.4 209.875C836.317 211.875 837.775 214.521 838.775 217.812C839.817 221.104 840.338 225.125 840.338 229.875V273H822.213V229.812C822.213 226.812 821.796 224.479 820.963 222.812C820.129 221.146 818.9 219.979 817.275 219.312C815.692 218.604 813.733 218.25 811.4 218.25C808.983 218.25 806.879 218.729 805.088 219.688C803.338 220.646 801.879 221.979 800.713 223.688C799.588 225.354 798.733 227.312 798.15 229.562C797.567 231.812 797.275 234.229 797.275 236.812ZM878.123 260.188C880.331 260.188 882.289 259.771 883.998 258.938C885.706 258.062 887.039 256.854 887.998 255.312C888.998 253.729 889.518 251.875 889.56 249.75H906.498C906.456 254.5 905.185 258.729 902.685 262.438C900.185 266.104 896.831 269 892.623 271.125C888.414 273.208 883.706 274.25 878.498 274.25C873.248 274.25 868.664 273.375 864.748 271.625C860.873 269.875 857.643 267.458 855.06 264.375C852.477 261.25 850.539 257.625 849.248 253.5C847.956 249.333 847.31 244.875 847.31 240.125V238.312C847.31 233.521 847.956 229.062 849.248 224.938C850.539 220.771 852.477 217.146 855.06 214.062C857.643 210.938 860.873 208.5 864.748 206.75C868.623 205 873.164 204.125 878.373 204.125C883.914 204.125 888.768 205.188 892.935 207.312C897.143 209.438 900.435 212.479 902.81 216.438C905.227 220.354 906.456 225 906.498 230.375H889.56C889.518 228.125 889.039 226.083 888.123 224.25C887.248 222.417 885.956 220.958 884.248 219.875C882.581 218.75 880.518 218.188 878.06 218.188C875.435 218.188 873.289 218.75 871.623 219.875C869.956 220.958 868.664 222.458 867.748 224.375C866.831 226.25 866.185 228.396 865.81 230.812C865.477 233.188 865.31 235.688 865.31 238.312V240.125C865.31 242.75 865.477 245.271 865.81 247.688C866.143 250.104 866.768 252.25 867.685 254.125C868.643 256 869.956 257.479 871.623 258.562C873.289 259.646 875.456 260.188 878.123 260.188ZM913.97 264.312C913.97 261.646 914.887 259.417 916.72 257.625C918.595 255.833 921.074 254.938 924.158 254.938C927.241 254.938 929.699 255.833 931.533 257.625C933.408 259.417 934.345 261.646 934.345 264.312C934.345 266.979 933.408 269.208 931.533 271C929.699 272.792 927.241 273.688 924.158 273.688C921.074 273.688 918.595 272.792 916.72 271C914.887 269.208 913.97 266.979 913.97 264.312Z" fill="#FB8C00"/>
</g>
<g filter="url(#filter1_d_4352_11)">
<path d="M1089.3 154.186L960.202 8.31364C957.346 5.08674 959.637 0 963.946 0H1009.09C1010.47 0 1011.8 0.577387 1012.75 1.59389L1154.65 154.094C1156.44 156.013 1156.44 158.987 1154.65 160.906L1012.75 313.406C1011.8 314.423 1010.47 315 1009.09 315H963.946C959.637 315 957.346 309.913 960.202 306.686L1089.3 160.814C1090.97 158.922 1090.97 156.078 1089.3 154.186Z" fill="#FB8C00"/>
</g>
<defs>
<filter id="filter0_d_4352_11" x="113.64" y="61.9375" width="824.705" height="220.312" filterUnits="userSpaceOnUse" color-interpolation-filters="sRGB">
<feFlood flood-opacity="0" result="BackgroundImageFix"/>
<feColorMatrix in="SourceAlpha" type="matrix" values="0 0 0 0 0 0 0 0 0 0 0 0 0 0 0 0 0 0 127 0" result="hardAlpha"/>
<feOffset dy="4"/>
<feGaussianBlur stdDeviation="2"/>
<feComposite in2="hardAlpha" operator="out"/>
<feColorMatrix type="matrix" values="0 0 0 0 0 0 0 0 0 0 0 0 0 0 0 0 0 0 0.25 0"/>
<feBlend mode="normal" in2="BackgroundImageFix" result="effect1_dropShadow_4352_11"/>
<feBlend mode="normal" in="SourceGraphic" in2="effect1_dropShadow_4352_11" result="shape"/>
</filter>
<filter id="filter1_d_4352_11" x="954.936" y="0" width="205.056" height="323" filterUnits="userSpaceOnUse" color-interpolation-filters="sRGB">
<feFlood flood-opacity="0" result="BackgroundImageFix"/>
<feColorMatrix in="SourceAlpha" type="matrix" values="0 0 0 0 0 0 0 0 0 0 0 0 0 0 0 0 0 0 127 0" result="hardAlpha"/>
<feOffset dy="4"/>
<feGaussianBlur stdDeviation="2"/>
<feComposite in2="hardAlpha" operator="out"/>
<feColorMatrix type="matrix" values="0 0 0 0 0 0 0 0 0 0 0 0 0 0 0 0 0 0 0.25 0"/>
<feBlend mode="normal" in2="BackgroundImageFix" result="effect1_dropShadow_4352_11"/>
<feBlend mode="normal" in="SourceGraphic" in2="effect1_dropShadow_4352_11" result="shape"/>
</filter>
</defs>
</svg>
